<?xml version="1.0" standalone="no"?>
<!DOCTYPE svg PUBLIC "-//W3C//DTD SVG 20010904//EN"
 "http://www.w3.org/TR/2001/REC-SVG-20010904/DTD/svg10.dtd">
<svg version="1.0" xmlns="http://www.w3.org/2000/svg"
 width="653.000000pt" height="653.000000pt" viewBox="0 0 653.000000 653.000000"
 preserveAspectRatio="xMidYMid meet">
<metadata>
Created by potrace 1.11, written by Peter Selinger 2001-2013
</metadata>
<g transform="translate(0.000000,653.000000) scale(0.100000,-0.100000)"
fill="#000000" stroke="none">
<path d="M0 6285 l0 -245 3265 0 3265 0 0 245 0 245 -3265 0 -3265 0 0 -245z"/>
<path d="M4735 5240 c-366 -25 -653 -79 -1400 -266 -884 -220 -1215 -275
-1665 -276 -297 0 -538 34 -805 114 -154 45 -297 -13 -361 -147 l-24 -50 0
-1480 0 -1480 24 -50 c39 -85 81 -120 206 -168 343 -133 734 -191 1130 -168
423 25 699 76 1495 275 773 193 1054 245 1452 266 366 19 630 -10 993 -110
157 -44 300 17 362 154 l23 51 3 1425 c1 858 -1 1451 -7 1493 -11 82 -54 154
-115 196 -110 75 -485 181 -746 211 -135 15 -413 20 -565 10z m728 -471 c55
-11 138 -32 185 -47 l87 -28 3 -218 2 -219 -47 7 c-27 3 -85 24 -131 47 -175
86 -293 253 -315 448 l-5 43 61 -6 c34 -4 106 -16 160 -27z m-4423 -438 c98
-19 186 -31 352 -46 68 -7 68 -7 62 -33 -25 -105 -88 -208 -175 -288 -86 -79
-197 -128 -315 -140 l-64 -7 0 272 c0 255 1 272 18 267 9 -2 64 -14 122 -25z
m2412 -235 c249 -53 468 -287 550 -586 19 -73 23 -109 23 -255 0 -145 -4 -182
-23 -251 -47 -173 -128 -310 -247 -422 -207 -193 -468 -233 -715 -110 -68 34
-103 60 -175 133 -74 74 -99 108 -142 190 -28 55 -64 143 -80 195 -25 88 -28
108 -28 265 0 158 2 177 28 265 124 415 455 651 809 576z m2288 -1684 l0 -258
-112 23 c-62 12 -160 28 -218 34 -158 16 -153 14 -145 52 25 118 165 287 288
347 55 27 139 55 180 59 4 1 7 -115 7 -257z m-4680 -189 c140 -38 276 -151
343 -283 35 -71 77 -223 65 -236 -19 -18 -382 51 -510 97 l-58 21 0 215 0 215
53 -7 c28 -3 77 -13 107 -22z"/>
<path d="M0 235 l0 -235 3265 0 3265 0 0 235 0 235 -3265 0 -3265 0 0 -235z"/>
</g>
</svg>
